<svg xmlns="http://www.w3.org/2000/svg" xmlns:xlink="http://www.w3.org/1999/xlink" style="isolation:isolate" viewBox="20 386.125 55 55" width="55pt" height="55pt"><g><circle cx="47.500000000000014" cy="413.6249999999999" r="27.500000000000007" fill="rgb(255,255,255)"></circle><g><g><path d=" M 52.879 426.379 C 52.73 426.286 52.269 426.167 52.142 426.07 L 49.54 427.78 L 47.424 425.664 L 49.244 422.765 C 49.176 422.643 49.189 422.621 49.129 422.49 L 45.778 421.894 L 45.791 418.631 L 48.236 418.208 L 47.018 417.019 C 46.002 417.848 44.758 418.339 43.429 418.339 L 43.425 418.339 L 43.421 418.339 C 42.164 418.339 40.988 417.899 40.006 417.154 L 40.006 417.154 L 38.766 418.339 L 36.341 418.339 C 35.224 418.339 34.348 418.72 33.667 419.511 C 31.674 421.813 32.008 426.773 32.165 428.292 L 53.242 428.292 L 52.879 426.379 Z  M 38.381 412.203 C 38.542 413.587 39.122 414.818 39.968 415.72 C 40.146 415.91 40.332 416.084 40.531 416.24 C 40.785 416.443 41.051 416.617 41.335 416.765 C 41.974 417.095 42.676 417.285 43.425 417.285 C 44.174 417.285 44.877 417.095 45.516 416.765 C 45.799 416.617 46.066 416.443 46.32 416.24 C 46.518 416.079 46.709 415.906 46.887 415.715 C 47.729 414.814 48.308 413.595 48.469 412.22 C 48.486 412.22 48.499 412.224 48.516 412.224 C 49.396 412.224 50.111 411.403 50.111 410.392 C 50.111 409.778 49.849 409.241 49.447 408.907 L 37.674 408.907 C 37.272 409.241 37.01 409.778 37.01 410.392 C 37.01 411.323 37.607 412.08 38.381 412.203 Z  M 62.958 420.941 L 62.958 419.532 L 60.026 419.003 C 59.895 418.457 59.679 417.95 59.395 417.484 L 61.101 415.047 L 60.102 414.048 L 57.656 415.749 C 57.191 415.466 56.679 415.25 56.137 415.123 L 55.616 412.195 L 54.207 412.195 L 53.679 415.127 C 53.133 415.258 52.625 415.474 52.159 415.758 L 49.722 414.052 L 48.723 415.051 L 50.424 417.497 C 50.141 417.962 49.925 418.474 49.798 419.016 L 46.87 419.537 L 46.87 420.946 L 49.802 421.475 C 49.934 422.02 50.149 422.528 50.433 422.994 L 48.723 425.431 L 49.722 426.43 L 52.168 424.729 C 52.633 425.012 53.145 425.228 53.687 425.355 L 54.207 428.283 L 55.616 428.283 L 56.145 425.351 C 56.691 425.22 57.199 425.004 57.664 424.72 L 60.102 426.426 L 61.101 425.427 L 59.399 422.981 C 59.683 422.516 59.899 422.004 60.026 421.462 L 62.958 420.941 Z  M 54.91 422.414 C 53.708 422.414 52.735 421.441 52.735 420.239 C 52.735 419.037 53.708 418.064 54.91 418.064 C 56.111 418.064 57.085 419.037 57.085 420.239 C 57.085 421.441 56.111 422.414 54.91 422.414 Z  M 41.191 401.057 C 39.431 401.954 38.043 403.748 37.518 405.492 L 37.4 405.864 L 36.435 405.864 L 36.435 407.98 L 37.484 407.98 L 38.974 407.98 L 39.6 407.98 L 47.758 407.98 L 48.368 407.98 L 50.686 407.98 L 50.686 407.879 L 50.686 405.864 L 49.739 405.864 L 49.62 405.492 C 49.095 403.748 47.707 401.971 45.947 401.074 L 45.947 405.052 L 45.947 405.61 C 45.947 405.644 45.947 405.661 45.947 405.678 C 45.93 405.864 45.896 406.034 45.812 406.203 C 45.592 406.626 45.152 406.931 44.644 406.931 L 44.373 406.931 L 42.511 406.931 C 42.037 406.931 41.614 406.677 41.394 406.304 C 41.292 406.152 41.242 405.983 41.208 405.797 C 41.191 405.729 41.191 405.678 41.191 405.61 L 41.191 405.136 L 41.191 401.057 L 41.191 401.057 Z  M 42.511 406.372 L 44.627 406.372 C 44.932 406.372 45.186 406.203 45.321 405.949 C 45.389 405.83 45.422 405.712 45.422 405.577 L 45.422 405.424 L 45.422 404.798 L 45.422 400.803 L 45.422 400.228 L 45.422 400.008 C 45.422 399.872 45.389 399.754 45.355 399.635 C 45.202 399.246 44.813 398.958 44.373 398.958 L 42.511 398.958 C 42.105 398.958 41.766 399.263 41.732 399.652 C 41.732 399.686 41.716 399.72 41.716 399.754 L 41.716 400.228 L 41.716 400.803 L 41.716 404.866 L 41.716 405.509 L 41.716 405.577 C 41.716 405.746 41.766 405.898 41.851 406.034 C 42.003 406.237 42.24 406.372 42.511 406.372 Z " fill="rgb(5,5,66)"></path></g></g></g></svg>