<svg xmlns="http://www.w3.org/2000/svg" xmlns:xlink="http://www.w3.org/1999/xlink" style="isolation:isolate" viewBox="20 206 55 55" width="55pt" height="55pt"><g><circle cx="47.500000000000014" cy="233.49999999999994" r="27.500000000000014" fill="rgb(255,255,255)"></circle><g><g><path d=" M 39.336 238.755 C 37.387 238.755 35.806 240.335 35.806 242.279 C 35.806 244.228 37.387 245.808 39.336 245.808 C 41.279 245.808 42.86 244.228 42.86 242.279 C 42.86 240.335 41.279 238.755 39.336 238.755 Z  M 39.336 244.046 C 38.362 244.046 37.568 243.253 37.568 242.279 C 37.568 241.31 38.362 240.517 39.336 240.517 C 40.305 240.517 41.098 241.31 41.098 242.279 C 41.098 243.253 40.305 244.046 39.336 244.046 Z  M 36.298 238.756 L 28.398 238.756 C 28.085 238.756 27.832 239.01 27.832 239.323 L 27.832 241.042 C 27.832 241.355 28.085 241.608 28.398 241.608 L 34.73 241.608 C 34.895 240.474 35.468 239.472 36.298 238.756 Z  M 57.777 238.755 C 55.834 238.755 54.253 240.335 54.253 242.279 C 54.253 244.228 55.834 245.808 57.777 245.808 C 59.726 245.808 61.301 244.228 61.301 242.279 C 61.301 240.335 59.726 238.755 57.777 238.755 Z  M 57.777 244.046 C 56.803 244.046 56.015 243.253 56.015 242.279 C 56.015 241.31 56.803 240.517 57.777 240.517 C 58.752 240.517 59.539 241.31 59.539 242.279 C 59.539 243.253 58.752 244.046 57.777 244.046 Z  M 66.967 238.755 L 65.59 238.755 L 65.59 231.055 C 65.59 230.155 65.318 229.271 64.814 228.523 L 61.364 223.413 C 60.525 222.166 59.114 221.418 57.607 221.418 L 52.259 221.418 C 51.636 221.418 51.126 221.922 51.126 222.551 L 51.126 238.755 L 42.373 238.755 C 43.2 239.474 43.772 240.471 43.936 241.61 L 53.177 241.61 C 53.5 239.361 55.437 237.622 57.777 237.622 C 60.117 237.622 62.055 239.361 62.383 241.61 L 66.967 241.61 C 67.284 241.61 67.533 241.355 67.533 241.044 L 67.533 239.321 C 67.533 239.01 67.284 238.755 66.967 238.755 Z  M 61.324 229.543 L 54.265 229.543 C 53.953 229.543 53.698 229.293 53.698 228.976 L 53.698 225.061 C 53.698 224.75 53.953 224.495 54.265 224.495 L 58.565 224.495 C 58.752 224.495 58.927 224.585 59.029 224.733 L 61.789 228.653 C 62.055 229.027 61.783 229.543 61.324 229.543 Z  M 48.429 237.622 L 28.6 237.622 C 27.974 237.622 27.467 237.114 27.467 236.489 L 27.467 231.39 C 27.467 230.764 27.974 230.256 28.6 230.256 L 48.429 230.256 C 49.055 230.256 49.562 230.764 49.562 231.39 L 49.562 236.489 C 49.562 237.114 49.055 237.622 48.429 237.622 Z  M 36.532 228.557 L 28.6 228.557 C 27.974 228.557 27.467 228.049 27.467 227.424 L 27.467 222.325 C 27.467 221.699 27.974 221.192 28.6 221.192 L 36.532 221.192 C 37.157 221.192 37.665 221.699 37.665 222.325 L 37.665 227.424 C 37.665 228.049 37.157 228.557 36.532 228.557 Z  M 48.429 228.557 L 40.497 228.557 C 39.872 228.557 39.364 228.05 39.364 227.424 L 39.364 222.325 C 39.364 221.699 39.872 221.192 40.497 221.192 L 48.429 221.192 C 49.055 221.192 49.562 221.699 49.562 222.325 L 49.562 227.424 C 49.562 228.049 49.055 228.557 48.429 228.557 Z " fill="rgb(5,5,66)"></path></g></g></g></svg>