<svg xmlns="http://www.w3.org/2000/svg" xmlns:xlink="http://www.w3.org/1999/xlink" style="isolation:isolate" viewBox="20 291.125 55 55" width="55pt" height="55pt"><g><circle cx="47.500000000000014" cy="318.62500000000006" r="27.500000000000014" fill="rgb(255,255,255)"></circle><g><path d=" M 58.058 308.066 C 58.408 308.416 59.332 308.275 60.096 307.511 C 60.89 306.528 61.566 305.455 62.112 304.316 C 62.187 304.154 62.176 304.035 62.133 303.992 C 62.102 303.968 62.063 303.956 62.023 303.959 C 61.949 303.962 61.876 303.98 61.81 304.013 C 60.67 304.559 59.597 305.236 58.614 306.03 C 57.851 306.793 57.708 307.716 58.058 308.066 L 58.058 308.066 Z " fill="rgb(5,5,66)"></path><path d=" M 46.453 312.339 L 46.452 308.149 L 42.062 308.149 L 39.967 312.339 L 46.453 312.339 Z " fill="rgb(5,5,66)"></path><path d=" M 38.795 312.339 L 40.891 308.149 L 39.443 308.149 L 37.348 312.339 L 38.795 312.339 Z " fill="rgb(5,5,66)"></path><path d=" M 42.262 333.292 C 42.551 333.291 42.786 333.057 42.786 332.768 L 42.786 319.673 C 42.786 318.805 42.082 318.101 41.214 318.101 C 40.346 318.101 39.643 318.805 39.643 319.673 L 39.643 332.768 C 39.643 333.057 39.878 333.291 40.167 333.292 L 42.262 333.292 Z  M 41.214 319.673 C 41.504 319.673 41.738 319.907 41.738 320.197 C 41.738 320.486 41.504 320.72 41.214 320.72 C 40.925 320.72 40.691 320.486 40.691 320.197 C 40.691 319.907 40.925 319.673 41.214 319.673 Z  M 41.214 321.768 C 41.504 321.768 41.738 322.002 41.738 322.292 C 41.738 322.581 41.504 322.816 41.214 322.816 C 40.925 322.816 40.691 322.581 40.691 322.292 C 40.691 322.002 40.925 321.768 41.214 321.768 Z " fill="rgb(5,5,66)"></path><path d=" M 38.272 308.149 L 35.976 308.149 L 35.976 312.339 L 36.176 312.339 L 38.272 308.149 Z " fill="rgb(5,5,66)"></path><path d=" M 48.317 322.005 C 48.728 321.35 49.048 320.641 49.267 319.9 C 49.237 319.894 49.208 319.896 49.178 319.887 C 49.008 319.837 48.853 319.745 48.729 319.618 L 48.429 319.919 C 47.867 320.485 47.819 321.382 48.317 322.005 Z " fill="rgb(5,5,66)"></path><path d=" M 48.634 315.269 L 49.467 318.88 L 52.503 315.845 L 50.281 313.622 L 48.634 315.269 Z  M 51.021 315.845 C 51.171 315.994 51.216 316.22 51.135 316.415 C 51.054 316.611 50.863 316.739 50.651 316.739 C 50.439 316.739 50.248 316.611 50.167 316.415 C 50.086 316.22 50.131 315.994 50.281 315.845 C 50.485 315.64 50.817 315.64 51.021 315.845 Z " fill="rgb(5,5,66)"></path><path d=" M 51.241 322.678 L 49.819 322.962 L 49.173 323.609 C 49.17 323.612 49.169 323.616 49.165 323.619 C 49.163 323.622 49.158 323.623 49.155 323.626 L 47.691 325.09 C 47.688 325.093 47.687 325.097 47.684 325.101 C 47.681 325.104 47.677 325.105 47.673 325.108 L 47.122 325.659 L 47.122 326.707 L 53.507 333.14 C 53.714 333.336 54.04 333.336 54.246 333.139 L 55.727 331.657 C 55.932 331.452 55.932 331.121 55.727 330.916 L 54.001 329.141 C 53.597 328.731 53.599 328.073 54.005 327.665 L 54.376 327.294 L 52.154 325.072 C 51.957 324.875 51.847 324.609 51.847 324.331 C 51.847 324.053 51.957 323.787 52.154 323.59 L 51.241 322.678 Z  M 48.82 326.707 C 48.531 326.707 48.297 326.472 48.297 326.183 C 48.297 325.894 48.531 325.659 48.82 325.659 C 49.11 325.659 49.344 325.894 49.344 326.183 C 49.344 326.472 49.11 326.707 48.82 326.707 Z " fill="rgb(5,5,66)"></path><path d=" M 46.947 318.437 C 45.517 319.87 45.517 322.19 46.947 323.623 L 47.312 323.988 L 48.053 323.247 L 47.688 322.882 C 46.667 321.858 46.667 320.201 47.688 319.178 L 48.316 318.55 L 48.038 317.346 L 46.947 318.437 Z " fill="rgb(5,5,66)"></path><path d=" M 56.948 310.659 L 55.466 309.178 C 55.368 309.079 55.235 309.024 55.096 309.024 C 54.957 309.024 54.824 309.079 54.726 309.177 L 51.022 312.882 L 53.243 315.104 L 56.948 311.4 C 57.152 311.195 57.152 310.864 56.948 310.659 L 56.948 310.659 Z " fill="rgb(5,5,66)"></path><path d=" M 38.595 325.539 L 38.595 319.673 C 38.595 318.226 39.768 317.054 41.214 317.054 C 42.661 317.054 43.833 318.226 43.833 319.673 L 43.833 325.544 C 44.471 325.334 45.081 325.047 45.649 324.688 C 45.828 324.576 46.004 324.456 46.176 324.33 C 44.368 322.483 44.381 319.526 46.206 317.697 L 47.76 316.142 L 47.613 315.504 C 47.53 315.152 47.637 314.782 47.894 314.528 L 49.595 312.827 L 49.595 308.149 C 49.592 305.836 47.718 303.961 45.405 303.958 L 37.024 303.958 C 34.711 303.961 32.836 305.836 32.833 308.149 L 32.833 317.577 C 32.835 321.197 35.158 324.407 38.595 325.539 L 38.595 325.539 Z  M 34.929 312.339 L 34.929 308.149 C 34.929 307.571 35.398 307.102 35.976 307.101 L 46.452 307.101 C 47.031 307.102 47.499 307.571 47.5 308.149 L 47.5 312.339 C 47.499 312.918 47.031 313.386 46.452 313.387 L 35.976 313.387 C 35.398 313.386 34.929 312.918 34.929 312.339 Z " fill="rgb(5,5,66)"></path></g></g></svg>